# xmcd
#
# Track frame offsets:
#	150
#	12984
#	24956
#	43812
#	52730
#	65016
#	75612
#	87882
#	98521
#	110820
#	120252
#	132777
#	150103
#	161445
#	174020
#	183432
#	192508
#	202984
#	215949
#	228728
#	239655
#	251403
#	261478
#	274366
#	285571
#	296938
#	311027
#	321432
#	337107
#
# Disc length: 4671 seconds
# Revision: 0
# Processed by: cddbd v1.5.2PL0 Copyright (c) Steve Scherf et al.
# Submitted via: dBpowerAMP V12.0
#
DISCID=a9123d1d
DTITLE=Various Artist - The Odyssey - CD3 - The Golden Torch to Blackpool Mecca
DYEAR=1967
DGENRE=R&B
TTITLE0=Jerry Williams - If You Ask Me (Because I Love You)
TTITLE1=The Invitations - Skiing In The Snow
TTITLE2=Moses Smith - The Girl Across The Street
TTITLE3=Bob Relf - Blowing My Mind To Pieces
TTITLE4=JJ Barnes - Our Love Is In The Pocket
TTITLE5=The Velvets - I Gotta Find Me Somebody
TTITLE6=Jerry Cook - I Hurt On The Other Side
TTITLE7=Edward Hamilton - I'm Gonna Love You
TTITLE8=Otis Smith - Let Her Go
TTITLE9=United Four - She's Puttin' You On
TTITLE10=Saxie Russell - Psychedelic Soul Pt 2
TTITLE11=The Steve Karmen Big Band - Breakaway (Pt 2)
TTITLE12=Stanley Mitchell - Get It Baby
TTITLE13=Tony and Tyrone - Please Operator
TTITLE14=The Tomangoes - I Really Love You
TTITLE15=The Coasters - Crazy Baby
TTITLE16=The Salvadores - Stick By Me Baby
TTITLE17=Alice Clark - You Hit Me (Right Where It Hurt Me)
TTITLE18=Edward Hamilton and The Arabians - Baby Don't You Weep
TTITLE19=Lorraine Chandler - I Can't Hold On
TTITLE20=Ben Aitken - Satisfied
TTITLE21=R Dean Taylor - There's A Ghost In My House
TTITLE22=Freddie Chavez - They'll Never Know Why
TTITLE23=Linda Jones - I Just Can't Live My Life (Without You Babe)
TTITLE24=Ila Vann - Can't Help Loving That Man Of Mine
TTITLE25=James Fountain - Seven Day Lover
TTITLE26=Mel Britt - She'll Come Running Back
TTITLE27=The Carstairs - It Really Hurts Me Girl
TTITLE28=Young Holt Unlimited - California Montage
EXTD=
EXTT0=
EXTT1=
EXTT2=
EXTT3=
EXTT4=
EXTT5=
EXTT6=
EXTT7=
EXTT8=
EXTT9=
EXTT10=
EXTT11=
EXTT12=
EXTT13=
EXTT14=
EXTT15=
EXTT16=
EXTT17=
EXTT18=
EXTT19=
EXTT20=
EXTT21=
EXTT22=
EXTT23=
EXTT24=
EXTT25=
EXTT26=
EXTT27=
EXTT28=
PLAYORDER=
